HIERARCHY
ROOT mixamorig:Hips
{
	OFFSET 0.000000 104.274902 0.000000
	CHANNELS 6 Xposition Yposition Zposition Xrotation Yrotation Zrotation
	JOINT mixamorig:Spine
	{
		OFFSET 0.000000 10.181549 0.131524
		CHANNELS 6 Xposition Yposition Zposition Xrotation Yrotation Zrotation
		JOINT mixamorig:Spine1
		{
			OFFSET 0.000000 9.893990 -1.470706
			CHANNELS 3 Xrotation Yrotation Zrotation
			JOINT mixamorig:Spine2
			{
				OFFSET 0.000000 9.220787 -1.370636
				CHANNELS 3 Xrotation Yrotation Zrotation
				JOINT mixamorig:Neck
				{
					OFFSET 0.000000 16.740372 -2.049023
					CHANNELS 6 Xposition Yposition Zposition Xrotation Yrotation Zrotation
					JOINT mixamorig:Head
					{
						OFFSET 0.000000 9.617859 1.684975
						CHANNELS 6 Xposition Yposition Zposition Xrotation Yrotation Zrotation
						JOINT mixamorig:HeadTop_End
						{
							OFFSET 0.000000 22.037369 7.501070
							CHANNELS 6 Xposition Yposition Zposition Xrotation Yrotation Zrotation
							End Site
							{
								OFFSET 0.000000 23.106567 -2.828246
							}
						}
					}
				}
				JOINT mixamorig:RightShoulder
				{
					OFFSET -4.570000 11.014862 -2.160841
					CHANNELS 6 Xposition Yposition Zposition Xrotation Yrotation Zrotation
					JOINT mixamorig:RightArm
					{
						OFFSET -10.592869 -0.524796 -2.232105
						CHANNELS 3 Xrotation Yrotation Zrotation
						JOINT mixamorig:RightForeArm
						{
							OFFSET -27.841499 0.000000 0.000000
							CHANNELS 3 Xrotation Yrotation Zrotation
							JOINT mixamorig:RightHand
							{
								OFFSET -28.328800 0.000000 0.000000
								CHANNELS 3 Xrotation Yrotation Zrotation
								JOINT mixamorig:RightHandThumb1
								{
									OFFSET -2.464798 -1.573990 2.681910
									CHANNELS 6 Xposition Yposition Zposition Xrotation Yrotation Zrotation
									JOINT mixamorig:RightHandThumb2
									{
										OFFSET -3.244789 -1.873367 1.873378
										CHANNELS 3 Xrotation Yrotation Zrotation
										JOINT mixamorig:RightHandThumb3
										{
											OFFSET -2.646255 -1.527817 1.527816
											CHANNELS 3 Xrotation Yrotation Zrotation
											JOINT mixamorig:RightHandThumb4
											{
												OFFSET -1.994583 -1.151581 1.151575
												CHANNELS 3 Xrotation Yrotation Zrotation
												End Site
												{
													OFFSET -1.860176 -1.142715 1.365483
												}
											}
										}
									}
								}
								JOINT mixamorig:RightHandIndex1
								{
									OFFSET -9.108299 -0.517883 2.259803
									CHANNELS 6 Xposition Yposition Zposition Xrotation Yrotation Zrotation
									JOINT mixamorig:RightHandIndex2
									{
										OFFSET -3.700005 0.000000 0.000000
										CHANNELS 3 Xrotation Yrotation Zrotation
										JOINT mixamorig:RightHandIndex3
										{
											OFFSET -2.849998 0.000000 0.000000
											CHANNELS 3 Xrotation Yrotation Zrotation
											JOINT mixamorig:RightHandIndex4
											{
												OFFSET -2.772202 0.000000 0.000000
												CHANNELS 3 Xrotation Yrotation Zrotation
												End Site
												{
													OFFSET -2.772202 0.000000 -0.000484
												}
											}
										}
									}
								}
								JOINT mixamorig:RightHandMiddle1
								{
									OFFSET -9.532501 0.000000 0.000000
									CHANNELS 6 Xposition Yposition Zposition Xrotation Yrotation Zrotation
									JOINT mixamorig:RightHandMiddle2
									{
										OFFSET -3.699997 0.000000 0.000000
										CHANNELS 3 Xrotation Yrotation Zrotation
										JOINT mixamorig:RightHandMiddle3
										{
											OFFSET -2.950005 0.000000 0.000000
											CHANNELS 3 Xrotation Yrotation Zrotation
											JOINT mixamorig:RightHandMiddle4
											{
												OFFSET -2.946602 0.000000 0.000000
												CHANNELS 3 Xrotation Yrotation Zrotation
												End Site
												{
													OFFSET -2.946594 0.000000 -0.000982
												}
											}
										}
									}
								}
								JOINT mixamorig:RightHandRing1
								{
									OFFSET -9.103600 -0.043106 -1.865100
									CHANNELS 6 Xposition Yposition Zposition Xrotation Yrotation Zrotation
									JOINT mixamorig:RightHandRing2
									{
										OFFSET -3.379303 0.000000 0.000000
										CHANNELS 3 Xrotation Yrotation Zrotation
										JOINT mixamorig:RightHandRing3
										{
											OFFSET -2.889702 0.000000 0.000000
											CHANNELS 3 Xrotation Yrotation Zrotation
											JOINT mixamorig:RightHandRing4
											{
												OFFSET -2.638794 0.000000 0.000000
												CHANNELS 3 Xrotation Yrotation Zrotation
												End Site
												{
													OFFSET -2.638794 0.000000 0.004219
												}
											}
										}
									}
								}
								JOINT mixamorig:RightHandPinky1
								{
									OFFSET -8.076698 -0.486725 -3.806297
									CHANNELS 6 Xposition Yposition Zposition Xrotation Yrotation Zrotation
									JOINT mixamorig:RightHandPinky2
									{
										OFFSET -3.600006 0.000000 0.000000
										CHANNELS 3 Xrotation Yrotation Zrotation
										JOINT mixamorig:RightHandPinky3
										{
											OFFSET -2.099998 0.000000 0.000000
											CHANNELS 3 Xrotation Yrotation Zrotation
											JOINT mixamorig:RightHandPinky4
											{
												OFFSET -2.115799 0.000000 0.000000
												CHANNELS 3 Xrotation Yrotation Zrotation
												End Site
												{
													OFFSET -2.115799 0.000000 0.000174
												}
											}
										}
									}
								}
							}
						}
					}
				}
				JOINT mixamorig:LeftShoulder
				{
					OFFSET 4.570400 11.014664 -2.160817
					CHANNELS 6 Xposition Yposition Zposition Xrotation Yrotation Zrotation
					JOINT mixamorig:LeftArm
					{
						OFFSET 10.592365 -0.524597 -2.232113
						CHANNELS 3 Xrotation Yrotation Zrotation
						JOINT mixamorig:LeftForeArm
						{
							OFFSET 27.841499 0.000000 0.000000
							CHANNELS 3 Xrotation Yrotation Zrotation
							JOINT mixamorig:LeftHand
							{
								OFFSET 28.328804 0.000000 0.000000
								CHANNELS 3 Xrotation Yrotation Zrotation
								JOINT mixamorig:LeftHandThumb1
								{
									OFFSET 2.466095 -1.576202 2.681697
									CHANNELS 6 Xposition Yposition Zposition Xrotation Yrotation Zrotation
									JOINT mixamorig:LeftHandThumb2
									{
										OFFSET 3.243317 -1.872528 1.872528
										CHANNELS 3 Xrotation Yrotation Zrotation
										JOINT mixamorig:LeftHandThumb3
										{
											OFFSET 2.647881 -1.528763 1.528755
											CHANNELS 3 Xrotation Yrotation Zrotation
											JOINT mixamorig:LeftHandThumb4
											{
												OFFSET 1.998924 -1.154068 1.154079
												CHANNELS 3 Xrotation Yrotation Zrotation
												End Site
												{
													OFFSET 1.884041 -1.149155 1.337651
												}
											}
										}
									}
								}
								JOINT mixamorig:LeftHandIndex1
								{
									OFFSET 9.109299 -0.518005 2.259899
									CHANNELS 6 Xposition Yposition Zposition Xrotation Yrotation Zrotation
									JOINT mixamorig:LeftHandIndex2
									{
										OFFSET 3.699997 0.000000 0.000000
										CHANNELS 3 Xrotation Yrotation Zrotation
										JOINT mixamorig:LeftHandIndex3
										{
											OFFSET 2.849998 0.000000 0.000000
											CHANNELS 3 Xrotation Yrotation Zrotation
											JOINT mixamorig:LeftHandIndex4
											{
												OFFSET 2.774902 0.000000 0.000000
												CHANNELS 3 Xrotation Yrotation Zrotation
												End Site
												{
													OFFSET 2.774902 0.000000 -0.000072
												}
											}
										}
									}
								}
								JOINT mixamorig:LeftHandMiddle1
								{
									OFFSET 9.533394 0.000000 0.000000
									CHANNELS 6 Xposition Yposition Zposition Xrotation Yrotation Zrotation
									JOINT mixamorig:LeftHandMiddle2
									{
										OFFSET 3.700005 0.000000 0.000000
										CHANNELS 3 Xrotation Yrotation Zrotation
										JOINT mixamorig:LeftHandMiddle3
										{
											OFFSET 2.949997 0.000000 0.000000
											CHANNELS 3 Xrotation Yrotation Zrotation
											JOINT mixamorig:LeftHandMiddle4
											{
												OFFSET 2.952904 0.000000 0.000000
												CHANNELS 3 Xrotation Yrotation Zrotation
												End Site
												{
													OFFSET 2.952896 0.000000 0.000165
												}
											}
										}
									}
								}
								JOINT mixamorig:LeftHandRing1
								{
									OFFSET 9.104500 -0.042999 -1.865100
									CHANNELS 6 Xposition Yposition Zposition Xrotation Yrotation Zrotation
									JOINT mixamorig:LeftHandRing2
									{
										OFFSET 3.149994 0.000000 0.000000
										CHANNELS 3 Xrotation Yrotation Zrotation
										JOINT mixamorig:LeftHandRing3
										{
											OFFSET 2.950005 0.000000 0.000000
											CHANNELS 3 Xrotation Yrotation Zrotation
											JOINT mixamorig:LeftHandRing4
											{
												OFFSET 2.644295 0.000000 0.000000
												CHANNELS 3 Xrotation Yrotation Zrotation
												End Site
												{
													OFFSET 2.644302 0.000000 0.000083
												}
											}
										}
									}
								}
								JOINT mixamorig:LeftHandPinky1
								{
									OFFSET 8.077797 -0.486893 -3.806301
									CHANNELS 6 Xposition Yposition Zposition Xrotation Yrotation Zrotation
									JOINT mixamorig:LeftHandPinky2
									{
										OFFSET 3.599998 0.000000 0.000000
										CHANNELS 3 Xrotation Yrotation Zrotation
										JOINT mixamorig:LeftHandPinky3
										{
											OFFSET 2.099998 0.000000 0.000000
											CHANNELS 3 Xrotation Yrotation Zrotation
											JOINT mixamorig:LeftHandPinky4
											{
												OFFSET 2.125504 0.000000 0.000000
												CHANNELS 3 Xrotation Yrotation Zrotation
												End Site
												{
													OFFSET 2.125504 0.000000 -0.001254
												}
											}
										}
									}
								}
							}
						}
					}
				}
			}
		}
	}
	JOINT mixamorig:RightUpLeg
	{
		OFFSET -8.207800 -6.751701 -1.599544
		CHANNELS 6 Xposition Yposition Zposition Xrotation Yrotation Zrotation
		JOINT mixamorig:RightLeg
		{
			OFFSET 0.000000 -44.370155 0.345934
			CHANNELS 3 Xrotation Yrotation Zrotation
			JOINT mixamorig:RightFoot
			{
				OFFSET 0.000000 -44.423664 -3.043536
				CHANNELS 3 Xrotation Yrotation Zrotation
				JOINT mixamorig:RightToeBase
				{
					OFFSET 0.000000 -8.728685 10.710592
					CHANNELS 3 Xrotation Yrotation Zrotation
					JOINT mixamorig:RightToe_End
					{
						OFFSET 0.000000 -0.000664 9.278099
						CHANNELS 3 Xrotation Yrotation Zrotation
						End Site
						{
							OFFSET 0.000000 -0.000664 9.278101
						}
					}
				}
			}
		}
	}
	JOINT mixamorig:LeftUpLeg
	{
		OFFSET 8.207800 -6.751701 -1.599544
		CHANNELS 6 Xposition Yposition Zposition Xrotation Yrotation Zrotation
		JOINT mixamorig:LeftLeg
		{
			OFFSET 0.000000 -44.370049 0.346940
			CHANNELS 3 Xrotation Yrotation Zrotation
			JOINT mixamorig:LeftFoot
			{
				OFFSET 0.000000 -44.423603 -3.044389
				CHANNELS 3 Xrotation Yrotation Zrotation
				JOINT mixamorig:LeftToeBase
				{
					OFFSET 0.000000 -8.728686 10.710592
					CHANNELS 3 Xrotation Yrotation Zrotation
					JOINT mixamorig:LeftToe_End
					{
						OFFSET 0.000000 -0.000680 9.278100
						CHANNELS 3 Xrotation Yrotation Zrotation
						End Site
						{
							OFFSET 0.000000 -0.000680 9.278100
						}
					}
				}
			}
		}
	}
}
MOTION
Frames: 4
Frame Time: 0.033333
5.290720 101.913834 2.881382 -0.195711 11.014091 -4.968773 -0.000000 10.181540 0.131524 1.604776 -2.750672 2.428648 1.451917 -2.743630 4.810420 1.428648 -2.229338 4.714565 0.000000 16.740372 -2.049024 5.329633 -3.771707 -6.020299 -0.000000 9.617825 1.684977 36.705638 -13.888372 2.235074 -0.000004 22.037399 7.501053 0.000001 0.000000 0.000000 -4.569998 11.014871 -2.160842 2.201888 3.277086 1.366636 36.483432 -14.504851 67.303106 0.000171 117.946111 -0.000132 3.751389 26.488578 -24.556605 -2.464794 -1.573971 2.681902 18.500066 0.463425 -10.930271 1.294085 -32.747598 3.094567 1.981894 -8.440247 1.202912 -0.000001 -0.000004 -0.000003 -9.108294 -0.517867 2.259801 0.340165 -4.675619 7.843843 0.387032 -2.823581 20.566224 -0.193123 -0.216340 13.843926 0.000003 0.000001 0.000003 -9.532497 0.000030 0.000002 0.911484 -8.767195 15.815481 0.920771 -3.993802 33.432253 0.216705 -1.689629 15.906360 0.000002 -0.000001 -0.000001 -9.103598 -0.043094 -1.865104 2.553592 -11.670326 26.896730 1.712109 -3.888187 40.236013 -0.157895 0.034728 17.820670 -0.000000 -0.000003 0.000004 -8.076689 -0.486704 -3.806293 5.582507 -16.027744 36.941170 1.378907 -4.077875 45.648719 -0.727796 -0.248501 22.131169 0.000001 0.000002 0.000000 4.570399 11.014654 -2.160818 -1.343406 -21.254538 -23.852783 -12.701807 -27.093147 -16.860580 0.000002 -138.207061 0.000002 -36.493547 9.188077 20.762143 2.466082 -1.576220 2.681688 18.491354 -0.461339 10.916038 1.284033 32.757604 -3.088997 2.117133 9.311161 -0.358628 0.000001 -0.000001 -0.000000 9.109298 -0.518026 2.259887 1.227862 7.028111 -32.942839 1.759613 4.923266 -45.668134 0.920466 3.172735 -35.208826 0.000001 0.000003 0.000000 9.533386 -0.000002 -0.000011 2.693939 10.477875 -41.108460 2.681749 5.753317 -58.626697 1.277411 3.710223 -37.337946 -0.000000 -0.000002 0.000001 9.104519 -0.043006 -1.865106 5.270941 12.291541 -52.380577 3.845219 5.191503 -65.535624 2.043222 3.789396 -44.407919 0.000000 -0.000002 0.000003 8.077784 -0.486904 -3.806318 7.472477 17.697232 -62.514993 3.390571 5.569359 -70.809206 1.984946 4.856979 -45.635332 0.000002 -0.000001 0.000000 -8.207801 -6.751714 -1.599543 -1.571640 -3.964823 8.082188 12.394458 -5.817271 3.402505 -11.428416 -8.532547 -5.594960 -0.504220 -0.000002 -0.000000 -0.000000 0.000000 0.000000 8.207799 -6.751710 -1.599542 -21.528804 11.783939 12.185930 24.749720 0.435511 1.846436 -3.088888 2.997999 -3.664487 -1.670626 0.000003 0.000000 0.000000 -0.000001 0.000000 
5.229710 101.915993 2.926203 -0.269033 11.035691 -4.957572 0.000000 10.181557 0.131526 1.587377 -2.716977 2.460836 1.413250 -2.685141 4.866183 1.389721 -2.170756 4.770322 -0.000001 16.740370 -2.049023 5.335479 -3.733791 -6.101411 -0.000001 9.617851 1.684969 37.123485 -13.853966 2.278984 -0.000002 22.037384 7.501076 -0.000000 0.000001 -0.000000 -4.570002 11.014853 -2.160840 2.234508 3.319150 1.062095 36.873241 -13.583041 68.049762 0.000150 116.856983 -0.000121 2.212711 23.417662 -21.600454 -2.464809 -1.573983 2.681913 18.500080 0.463430 -10.930254 1.294078 -32.747598 3.094549 1.981860 -8.440260 1.202899 -0.000001 -0.000002 0.000004 -9.108306 -0.517884 2.259808 0.340170 -4.675632 7.843846 0.387019 -2.823573 20.566227 -0.193118 -0.216345 13.843941 -0.000001 0.000000 0.000002 -9.532496 0.000007 0.000008 0.911468 -8.767203 15.815457 0.920783 -3.993789 33.432208 0.216688 -1.689628 15.906377 0.000000 0.000001 -0.000000 -9.103594 -0.043092 -1.865092 2.553581 -11.670299 26.896728 1.712116 -3.888205 40.236006 -0.157890 0.034736 17.820664 -0.000001 -0.000000 0.000000 -8.076714 -0.486724 -3.806286 5.582506 -16.027751 36.941160 1.378888 -4.077878 45.648736 -0.727787 -0.248504 22.131157 -0.000001 0.000001 0.000000 4.570403 11.014654 -2.160819 -1.393648 -21.721540 -23.945436 -14.093683 -27.457478 -17.107956 -0.000003 -139.399462 -0.000002 -36.659073 13.064908 18.300300 2.466086 -1.576205 2.681680 18.491369 -0.461345 10.916050 1.284027 32.757604 -3.088995 2.117132 9.311159 -0.358629 -0.000000 0.000003 -0.000004 9.109318 -0.517995 2.259910 1.224265 7.027694 -32.944352 1.759711 4.923384 -45.669671 0.920556 3.172865 -35.210356 -0.000001 -0.000003 0.000000 9.533385 -0.000003 -0.000007 2.695070 10.479098 -41.110711 2.681652 5.753273 -58.625617 1.277539 3.710382 -37.339828 -0.000001 0.000001 0.000000 9.104502 -0.043006 -1.865097 5.274203 12.294322 -52.380389 3.845420 5.191608 -65.538022 2.043357 3.789495 -44.409419 -0.000000 -0.000002 -0.000003 8.077795 -0.486893 -3.806291 7.476370 17.695574 -62.516237 3.390557 5.569355 -70.809001 1.985051 4.857066 -45.636858 0.000005 -0.000000 -0.000002 -8.207802 -6.751705 -1.599543 -1.426096 -4.024341 8.140791 12.323758 -5.832215 3.385550 -11.432284 -8.489231 -5.668217 -0.501952 0.000003 0.000002 0.000000 -0.000000 -0.000000 8.207800 -6.751703 -1.599545 -21.470956 11.824446 12.269360 24.771657 0.353771 1.816499 -3.074675 3.000526 -3.677441 -1.720641 0.000005 -0.000000 0.000000 -0.000000 0.000000 
5.139115 101.923485 2.936530 -0.350262 11.024695 -4.957671 -0.000001 10.181545 0.131524 1.568947 -2.661099 2.494441 1.370533 -2.579483 4.914059 1.347107 -2.064937 4.818244 0.000000 16.740374 -2.049025 5.292551 -3.751750 -6.153657 -0.000000 9.617857 1.684972 37.321929 -14.037076 2.534478 0.000004 22.037369 7.501093 0.000005 -0.000000 -0.000001 -4.570002 11.014845 -2.160841 2.262107 3.317805 0.595075 36.909632 -12.886456 68.831935 0.000144 115.844762 -0.000138 0.716780 21.371274 -20.044155 -2.464809 -1.573985 2.681919 18.500068 0.463420 -10.930255 1.294083 -32.747574 3.094556 1.981882 -8.440241 1.202894 0.000001 0.000001 0.000002 -9.108303 -0.517859 2.259809 0.340155 -4.675626 7.843846 0.387040 -2.823572 20.566208 -0.193129 -0.216366 13.843953 0.000000 -0.000000 -0.000001 -9.532501 0.000014 0.000003 0.911493 -8.767196 15.815464 0.920766 -3.993811 33.432219 0.216711 -1.689615 15.906375 0.000000 -0.000000 -0.000002 -9.103602 -0.043087 -1.865091 2.553563 -11.670315 26.896723 1.712155 -3.888194 40.235992 -0.157920 0.034739 17.820676 0.000000 0.000001 0.000001 -8.076700 -0.486727 -3.806292 5.582511 -16.027744 36.941157 1.378890 -4.077870 45.648757 -0.727785 -0.248497 22.131160 0.000001 0.000002 -0.000000 4.570396 11.014670 -2.160819 -1.402866 -22.059172 -23.898912 -14.738158 -27.533346 -16.755415 -0.000003 -140.975651 0.000005 -36.445005 15.956574 16.161092 2.466090 -1.576211 2.681692 18.491366 -0.461342 10.916055 1.284029 32.757604 -3.088994 2.117134 9.311161 -0.358628 0.000004 0.000000 0.000001 9.109295 -0.518010 2.259902 1.219859 7.025963 -32.932532 1.758873 4.922588 -45.658131 0.919909 3.171900 -35.198851 -0.000000 -0.000007 -0.000001 9.533389 0.000002 -0.000004 2.695652 10.480228 -41.100168 2.680499 5.752545 -58.611923 1.276819 3.709479 -37.328367 0.000000 0.000003 0.000000 9.104507 -0.043017 -1.865102 5.276214 12.297126 -52.367846 3.844414 5.191263 -65.527141 2.042489 3.788764 -44.397906 0.000002 0.000002 0.000005 8.077792 -0.486894 -3.806303 7.480186 17.692540 -62.504748 3.389470 5.568859 -70.796973 1.984170 4.856302 -45.625319 0.000001 -0.000001 -0.000004 -8.207800 -6.751710 -1.599543 -1.292795 -4.045645 8.247424 12.231023 -5.849643 3.344921 -11.402379 -8.444446 -5.794700 -0.500141 -0.000002 0.000001 -0.000000 -0.000000 0.000000 8.207799 -6.751697 -1.599541 -21.451753 11.845996 12.376886 24.818887 0.293477 1.800948 -2.970175 3.001252 -3.691564 -1.864589 0.000007 0.000001 -0.000000 0.000002 0.000000 
5.027812 101.931648 2.921485 -0.423211 11.085482 -4.978661 -0.000001 10.181553 0.131526 1.538935 -2.612403 2.507558 1.305448 -2.488259 4.918977 1.282481 -1.973384 4.823175 -0.000000 16.740364 -2.049021 5.219762 -3.810112 -6.166619 -0.000000 9.617834 1.684974 37.366203 -14.330671 2.830302 0.000003 22.037384 7.501090 -0.000003 0.000001 -0.000001 -4.569999 11.014840 -2.160840 2.294839 3.376960 0.278629 36.956518 -12.620275 69.422254 0.000126 115.111091 -0.000094 -0.015391 19.465474 -19.855329 -2.464805 -1.573975 2.681916 18.500069 0.463421 -10.930272 1.294072 -32.747608 3.094557 1.981897 -8.440253 1.202902 -0.000006 -0.000004 -0.000001 -9.108303 -0.517873 2.259816 0.340148 -4.675627 7.843849 0.387045 -2.823578 20.566215 -0.193137 -0.216354 13.843940 -0.000001 0.000001 0.000000 -9.532503 0.000010 0.000008 0.911464 -8.767182 15.815472 0.920789 -3.993808 33.432232 0.216700 -1.689623 15.906375 0.000001 -0.000002 -0.000005 -9.103593 -0.043094 -1.865088 2.553566 -11.670306 26.896711 1.712134 -3.888177 40.236009 -0.157924 0.034728 17.820672 0.000000 -0.000001 0.000001 -8.076698 -0.486722 -3.806288 5.582497 -16.027754 36.941160 1.378910 -4.077859 45.648739 -0.727790 -0.248512 22.131164 -0.000000 0.000004 0.000000 4.570399 11.014636 -2.160820 -1.322958 -22.157637 -23.531282 -14.881804 -27.317932 -16.049495 -0.000006 -142.820813 0.000006 -36.192384 18.756312 14.270384 2.466083 -1.576216 2.681680 18.491368 -0.461325 10.916061 1.284029 32.757604 -3.088994 2.117133 9.311155 -0.358623 0.000004 0.000002 -0.000001 9.109285 -0.518020 2.259892 1.207553 7.009612 -32.743473 1.745275 4.909288 -45.469211 0.909522 3.155923 -35.010532 -0.000001 -0.000002 -0.000001 9.533401 -0.000004 0.000003 2.680298 10.470898 -40.910248 2.664493 5.742353 -58.421367 1.265016 3.694880 -37.139857 0.000001 -0.000002 -0.000000 9.104506 -0.043001 -1.865104 5.258447 12.299079 -52.176071 3.826527 5.185133 -65.337323 2.028202 3.776762 -44.209366 -0.000001 -0.000003 0.000002 8.077777 -0.486926 -3.806308 7.464029 17.682781 -62.311788 3.372115 5.561104 -70.607525 1.969790 4.843943 -45.436372 -0.000003 0.000000 0.000001 -8.207800 -6.751699 -1.599543 -1.145089 -4.075202 8.377569 12.066718 -5.852002 3.326757 -11.333259 -8.466694 -5.915881 -0.498576 -0.000002 0.000001 -0.000000 -0.000000 -0.000000 8.207798 -6.751694 -1.599543 -21.470601 11.822385 12.477389 24.867438 0.214884 1.826432 -2.817198 2.995161 -3.718861 -2.033662 0.000004 0.000000 0.000000 0.000000 0.000000 
